<svg width="64" height="44" viewBox="0 0 64 44" fill="none" xmlns="http://www.w3.org/2000/svg">
<path d="M56.9674 36.1899H48.5067C47.9997 36.1899 47.5889 35.7791 47.5889 35.2722C47.5889 34.7652 47.9997 34.3544 48.5067 34.3544H56.9674C59.833 34.3544 62.1645 32.0229 62.1645 29.1573C62.1645 27.8919 61.7045 26.6724 60.8693 25.7241C60.0411 24.784 58.9053 24.1742 57.6711 24.0076C57.235 23.9488 56.902 23.5887 56.8774 23.1493C56.6263 18.6676 52.9094 15.157 48.4157 15.157C48.1484 15.157 47.8797 15.1695 47.6172 15.1941C47.126 15.2404 46.6848 14.8887 46.6212 14.3986C46.2086 11.2176 44.6514 8.28848 42.2365 6.15083C39.8008 3.99482 36.6661 2.8076 33.4095 2.8076C30.0424 2.8076 26.8288 4.06677 24.3596 6.35274C21.9041 8.62659 20.4026 11.7081 20.1313 15.0296C20.1063 15.3354 19.9305 15.6082 19.6621 15.7572C19.3942 15.9063 19.0693 15.9114 18.7965 15.7708C18.0054 15.3637 17.1493 15.157 16.2525 15.157C13.1827 15.157 10.685 17.6544 10.685 20.7245C10.685 20.7745 10.6857 20.824 10.6868 20.8732C10.6938 21.1555 10.5708 21.4253 10.3527 21.6049C10.1347 21.7844 9.84649 21.8534 9.5708 21.7924C9.12073 21.693 8.6567 21.6423 8.19158 21.6423C4.68683 21.6423 1.83553 24.4936 1.83553 27.9984C1.83553 31.5031 4.68683 34.3544 8.19158 34.3544H17.7917C18.2987 34.3544 18.7095 34.7652 18.7095 35.2722C18.7095 35.7791 18.2987 36.1899 17.7917 36.1899H8.19158C6.00364 36.1899 3.94638 35.3379 2.3994 33.7905C0.85205 32.2432 0 30.1863 0 27.9984C0 25.8104 0.85205 23.7535 2.3994 22.2062C3.94675 20.6588 6.00364 19.8068 8.19158 19.8068C8.4291 19.8068 8.66625 19.8171 8.9023 19.8372C9.34209 16.1721 12.4706 13.3215 16.2525 13.3215C16.9984 13.3215 17.7426 13.4353 18.4522 13.6552C18.9955 10.3461 20.6232 7.31051 23.1122 5.00546C25.9213 2.40415 29.578 0.97171 33.4091 0.97171C37.1143 0.97171 40.6811 2.32302 43.4528 4.77639C45.9862 7.01866 47.6899 10.0278 48.3081 13.3222C48.3441 13.3219 48.3801 13.3215 48.4157 13.3215C53.6392 13.3215 58 17.222 58.6447 22.3262C60.032 22.6662 61.2911 23.4257 62.2467 24.5105C63.3774 25.7943 64 27.4444 64 29.1569C63.9996 33.0354 60.8451 36.1899 56.9674 36.1899Z" fill="#4C6EF5"/>
<path d="M23.9377 32.2362L27.0027 32.2154L27.0665 41.644C27.0715 42.3908 27.6826 42.9921 28.4314 42.987L35.5648 42.9388C36.3136 42.9337 36.9164 42.3243 36.9114 41.5774L36.8476 32.1488L39.9127 32.1281C41.3377 32.1185 42.1242 30.4747 41.2346 29.3645L33.1785 19.3095C32.4893 18.4501 31.1753 18.459 30.4978 19.3276L22.5784 29.4906C21.704 30.6128 22.5126 32.2458 23.9377 32.2362Z" fill="#4564DF"/>
</svg>
